<svg width="61" height="61" viewBox="0 0 61 61" fill="none" xmlns="http://www.w3.org/2000/svg">
<g filter="url(#filter0_d_108_73)">
<path fill-rule="evenodd" clip-rule="evenodd" d="M30.5 49C41.8218 49 51 39.8218 51 28.5C51 17.1782 41.8218 8 30.5 8C19.1782 8 10 17.1782 10 28.5C10 39.8218 19.1782 49 30.5 49Z" fill="white"/>
</g>
<path d="M36.6562 21H25.3438C24.0516 21 23 22.0516 23 23.3438V34.6562C23 35.9488 24.0516 37 25.3438 37H36.6562C37.9488 37 39 35.9488 39 34.6562V23.3438C39 22.0516 37.9488 21 36.6562 21ZM38.0625 34.6562C38.0625 35.4316 37.4316 36.0625 36.6562 36.0625H25.3438C24.5684 36.0625 23.9375 35.4316 23.9375 34.6562V23.3438C23.9375 22.5684 24.5684 21.9375 25.3438 21.9375H36.6562C37.4316 21.9375 38.0625 22.5684 38.0625 23.3438V34.6562Z" fill="#080808"/>
<path d="M36.1562 22.9062C35.6394 22.9062 35.2188 23.3269 35.2188 23.8438C35.2188 24.3606 35.6394 24.7812 36.1562 24.7812C36.6731 24.7812 37.0938 24.3606 37.0938 23.8438C37.0938 23.3269 36.6731 22.9062 36.1562 22.9062Z" fill="#080808"/>
<path d="M31 24.7812C28.6737 24.7812 26.7812 26.6737 26.7812 29C26.7812 31.3263 28.6737 33.2188 31 33.2188C33.3263 33.2188 35.2188 31.3263 35.2188 29C35.2188 26.6737 33.3263 24.7812 31 24.7812ZM31 32.2812C29.1906 32.2812 27.7188 30.8094 27.7188 29C27.7188 27.1906 29.1906 25.7188 31 25.7188C32.8094 25.7188 34.2812 27.1906 34.2812 29C34.2812 30.8094 32.8094 32.2812 31 32.2812Z" fill="#080808"/>
<defs>
<filter id="filter0_d_108_73" x="0" y="0" width="61" height="61" filterUnits="userSpaceOnUse" color-interpolation-filters="sRGB">
<feFlood flood-opacity="0" result="BackgroundImageFix"/>
<feColorMatrix in="SourceAlpha" type="matrix" values="0 0 0 0 0 0 0 0 0 0 0 0 0 0 0 0 0 0 127 0" result="hardAlpha"/>
<feOffset dy="2"/>
<feGaussianBlur stdDeviation="5"/>
<feColorMatrix type="matrix" values="0 0 0 0 0 0 0 0 0 0 0 0 0 0 0 0 0 0 0.1 0"/>
<feBlend mode="normal" in2="BackgroundImageFix" result="effect1_dropShadow_108_73"/>
<feBlend mode="normal" in="SourceGraphic" in2="effect1_dropShadow_108_73" result="shape"/>
</filter>
</defs>
</svg>
