<svg width="399" height="277" viewBox="0 0 399 277" fill="none" xmlns="http://www.w3.org/2000/svg">
<g opacity="0.1">
<mask id="mask0_182_13" style="mask-type:alpha" maskUnits="userSpaceOnUse" x="0" y="0" width="399" height="277">
<rect x="398.5" y="0.5" width="276" height="398" transform="rotate(90 398.5 0.5)" fill="url(#paint0_linear_182_13)" stroke="#6246E5"/>
</mask>
<g mask="url(#mask0_182_13)">
<path d="M129.505 369.92C60.1724 369.92 3.9658 313.635 3.9658 244.202C3.9658 174.769 60.1724 118.484 129.505 118.484C198.838 118.484 255.045 174.769 255.045 244.202C255.045 313.635 198.838 369.92 129.505 369.92Z" stroke="#6246E5"/>
<path d="M142.773 374.902C65.1965 374.902 2.30749 311.925 2.30749 234.237C2.30749 156.55 65.1965 93.5727 142.773 93.5727C220.349 93.5728 283.238 156.55 283.238 234.237C283.238 311.925 220.349 374.902 142.773 374.902Z" stroke="#6246E5"/>
<path d="M153.552 379.885C68.6488 379.885 -0.180247 310.959 -0.180244 225.934C-0.18024 140.909 68.6488 71.9831 153.552 71.9831C238.456 71.9832 307.285 140.909 307.285 225.934C307.285 310.959 238.456 379.885 153.552 379.885Z" stroke="#6246E5"/>
<path d="M169.308 383.206C77.9927 383.206 3.96621 309.076 3.96621 217.63C3.96621 126.184 77.9927 52.0542 169.308 52.0542C260.622 52.0542 334.649 126.184 334.649 217.63C334.649 309.076 260.622 383.206 169.308 383.206Z" stroke="#6246E5"/>
<path d="M184.648 386.528C87.1504 386.528 8.11205 307.378 8.11205 209.742C8.11206 112.105 87.1504 32.9553 184.648 32.9553C282.145 32.9553 361.183 112.105 361.183 209.742C361.183 307.379 282.145 386.528 184.648 386.528Z" stroke="#6246E5"/>
<path d="M202.061 390.68C94.9466 390.68 8.11205 303.723 8.11205 196.456C8.11206 89.1879 94.9467 2.23143 202.061 2.23144C309.175 2.23144 396.01 89.1879 396.01 196.456C396.01 303.723 309.175 390.68 202.061 390.68Z" stroke="#6246E5"/>
</g>
</g>
<defs>
<linearGradient id="paint0_linear_182_13" x1="595.459" y1="11.1944" x2="379.981" y2="388.128" gradientUnits="userSpaceOnUse">
<stop stop-color="#747DEF"/>
<stop offset="1" stop-color="#5E3BE1"/>
</linearGradient>
</defs>
</svg>
