<svg width="61" height="61" viewBox="0 0 61 61" fill="none" xmlns="http://www.w3.org/2000/svg">
<g filter="url(#filter0_d_108_76)">
<path fill-rule="evenodd" clip-rule="evenodd" d="M30.5 49C41.8218 49 51 39.8218 51 28.5C51 17.1782 41.8218 8 30.5 8C19.1782 8 10 17.1782 10 28.5C10 39.8218 19.1782 49 30.5 49Z" fill="white"/>
</g>
<path d="M38 24.4729C37.405 24.734 36.771 24.907 36.11 24.9911C36.79 24.585 37.309 23.9468 37.553 23.1776C36.919 23.5557 36.219 23.8228 35.473 23.9718C34.871 23.3307 34.013 22.9336 33.077 22.9336C31.261 22.9336 29.799 24.4079 29.799 26.2153C29.799 26.4754 29.821 26.7254 29.875 26.9635C27.148 26.8305 24.735 25.5232 23.114 23.5317C22.831 24.0228 22.665 24.585 22.665 25.1901C22.665 26.3264 23.25 27.3336 24.122 27.9167C23.595 27.9067 23.078 27.7537 22.64 27.5126C22.64 27.5226 22.64 27.5356 22.64 27.5486C22.64 29.143 23.777 30.4673 25.268 30.7724C25.001 30.8454 24.71 30.8804 24.408 30.8804C24.198 30.8804 23.986 30.8684 23.787 30.8244C24.212 32.1237 25.418 33.0789 26.852 33.1099C25.736 33.9831 24.319 34.5092 22.785 34.5092C22.516 34.5092 22.258 34.4972 22 34.4642C23.453 35.4014 25.175 35.9365 27.032 35.9365C33.068 35.9365 36.368 30.9354 36.368 26.6004C36.368 26.4554 36.363 26.3154 36.356 26.1763C37.007 25.7142 37.554 25.1371 38 24.4729Z" fill="#080809"/>
<defs>
<filter id="filter0_d_108_76" x="0" y="0" width="61" height="61" filterUnits="userSpaceOnUse" color-interpolation-filters="sRGB">
<feFlood flood-opacity="0" result="BackgroundImageFix"/>
<feColorMatrix in="SourceAlpha" type="matrix" values="0 0 0 0 0 0 0 0 0 0 0 0 0 0 0 0 0 0 127 0" result="hardAlpha"/>
<feOffset dy="2"/>
<feGaussianBlur stdDeviation="5"/>
<feColorMatrix type="matrix" values="0 0 0 0 0 0 0 0 0 0 0 0 0 0 0 0 0 0 0.1 0"/>
<feBlend mode="normal" in2="BackgroundImageFix" result="effect1_dropShadow_108_76"/>
<feBlend mode="normal" in="SourceGraphic" in2="effect1_dropShadow_108_76" result="shape"/>
</filter>
</defs>
</svg>
